<svg xmlns="http://www.w3.org/2000/svg" xmlns:xlink="http://www.w3.org/1999/xlink" fill="none" version="1.1" width="40" height="40.000003814697266" viewBox="0 0 40 40.000003814697266"><defs><clipPath id="master_svg0_209_09900"><rect x="0" y="0" width="40" height="40.000003814697266" rx="0"/></clipPath><linearGradient x1="0.3390139937400818" y1="-0.16706715524196625" x2="1.280562687877553" y2="0.37527696676684164" id="master_svg1_169_25913"><stop offset="0%" stop-color="#408DFC" stop-opacity="1"/><stop offset="51.0758638381958%" stop-color="#4044ED" stop-opacity="1"/><stop offset="100%" stop-color="#AA75EF" stop-opacity="1"/></linearGradient></defs><g clip-path="url(#master_svg0_209_09900)"><g><path d="M17.5995755859375,14.7468846875C17.690875585937498,14.4772646875,17.7374755859375,14.1945246875,17.7374755859375,13.9098746875C17.7374755859375,12.4683746875,16.568875585937498,11.2998046875,15.1273755859375,11.2998046875C13.6858755859375,11.2998046875,12.5173255859375,12.4683746875,12.5173255859375,13.9098746875C12.5173255859375,14.258864687500001,12.5873155859375,14.6043146875,12.7231755859375,14.9257846875C12.6525755859375,16.2494746875,11.5958455859375,17.311394687499998,10.2743255859375,17.3900446875C10.2682755859375,17.3900046875,10.2622255859375,17.3899846875,10.2561755859375,17.3899846875C10.2040555859375,17.3899846875,10.1519455859375,17.3915446875,10.099915585937499,17.3946646875C10.0736955859375,17.3944946875,10.047485585937501,17.3939346875,10.0212855859375,17.3929746875L10.014355585937501,17.4012146875C8.6723355859375,17.5260846875,7.6461055859375,18.6522446875,7.6461055859375,20.0000546875C7.6461055859375,20.1089946875,7.6529255859375,20.2178246875,7.6665255859375,20.3259146875L7.6632555859375,20.329794687499998C7.6677855859375,20.3512046875,7.6720455859375,20.3726646875,7.6760355859375,20.394174687499998C7.6802155859375,20.4215046875,7.6848155859375,20.4487746875,7.6898655859375,20.4759546875C7.7097755859375,20.6063046875,7.7197855859375,20.7380546875,7.7197855859375,20.8700546875C7.7197855859375,22.3116046875,6.5512155859375,23.480104687500003,5.1097155859375,23.480104687500003C5.0778655859375,23.480104687500003,5.0460055859375,23.4795046875,5.0141755859375,23.4784046875L5.0059555859375,23.488104687499998C3.6477755859375,23.5947046875,2.5999755859375,24.7279046875,2.5999755859375,26.090204687499998C2.5999755859375,27.5317046875,3.7685455859375,28.7003046875,5.2100455859375,28.7003046875C6.6515455859375,28.7003046875,7.8201155859375,27.5317046875,7.8201155859375,26.090204687499998C7.8201155859375,25.9175046875,7.8029655859375,25.7451046875,7.7689155859375,25.5758046875C7.7527155859375,25.4580046875,7.7445755859375,25.3392046875,7.7445755859375,25.2202046875C7.7445755859375,23.7787046875,8.9131455859375,22.610104687499998,10.3546455859375,22.610104687499998C10.3666955859375,22.610104687499998,10.3787355859375,22.6102046875,10.3907855859375,22.610304687499998L10.3940355859375,22.6065046875C11.7800255859375,22.5332046875,12.8662755859375,21.3880046875,12.8662755859375,20.0000546875C12.8662755859375,19.7434146875,12.8283755859375,19.488184687500002,12.7538755859375,19.2425846875C12.7524755859375,19.2066846875,12.7516755859375,19.1707346875,12.7516755859375,19.1347646875C12.7516755859375,17.6932646875,13.9202755859375,16.524704687499998,15.3617755859375,16.524704687499998C15.3737755859375,16.524704687499998,15.3858755859375,16.524784687500002,15.3978755859375,16.5249546875L15.4155755859375,16.5039846875C15.4510755859375,16.5000446875,15.4864755859375,16.4953646875,15.5218755859375,16.4899646875L15.5286755859375,16.4990946875C15.5921755859375,16.4896446875,15.6563755859375,16.4848946875,15.7205755859375,16.4848946875C16.4413755859375,16.4848946875,17.0256755859375,17.069174687500002,17.0256755859375,17.7899246875C17.0256755859375,17.9830546875,16.9827755859375,18.1737746875,16.9001755859375,18.3483346875L16.9217755859375,18.3774646875C16.6580755859375,18.8776846875,16.5203755859375,19.4346146875,16.5203755859375,20.0000546875C16.5203755859375,20.6440446875,16.6990755859375,21.2753946875,17.036475585937502,21.8239046875C17.0494755859375,21.8622046875,17.0606755859375,21.901204687499998,17.070075585937502,21.9406046875C17.236475585937498,22.641904687500002,16.8029755859375,23.3453046875,16.1016755859375,23.5117046875C16.003375585937498,23.535104687500002,15.9028755859375,23.5469046875,15.8023755859375,23.5470046875C15.6098755859375,23.5026046875,15.4128755859375,23.480104687500003,15.2152755859375,23.480104687500003C13.7737755859375,23.480104687500003,12.6052755859375,24.6487046875,12.6052755859375,26.090204687499998C12.6052755859375,27.5317046875,13.7737755859375,28.7003046875,15.2152755859375,28.7003046875C16.656775585937503,28.7003046875,17.8253755859375,27.5317046875,17.8253755859375,26.090204687499998C17.8253755859375,25.7061046875,17.7405755859375,25.3268046875,17.5770755859375,24.9792046875C17.5722755859375,24.961904687500002,17.5677755859375,24.9445046875,17.5635755859375,24.927004687500002C17.3970755859375,24.2257046875,17.8306755859375,23.5223046875,18.5318755859375,23.355804687499997C18.6819755859375,23.320204687500002,18.8365755859375,23.3116046875,18.9886755859375,23.3298046875C19.3166755859375,23.4295046875,19.6575755859375,23.480104687500003,20.0004755859375,23.480104687500003C20.3702755859375,23.480104687500003,20.7378755859375,23.4212046875,21.0891755859375,23.305504687499997C21.2142755859375,23.2986046875,21.3402755859375,23.309704687500002,21.4631755859375,23.3390046875C22.1643755859375,23.5061046875,22.5972755859375,24.2099046875,22.4301755859375,24.9110046875C22.4082755859375,25.0029046875,22.3764755859375,25.0922046875,22.3352755859375,25.177304687499998L22.3387755859375,25.1814046875C22.2307755859375,25.4723046875,22.1754755859375,25.7800046875,22.1754755859375,26.090204687499998C22.1754755859375,27.5317046875,23.3440755859375,28.7003046875,24.7855755859375,28.7003046875C26.2270755859375,28.7003046875,27.3956755859375,27.5317046875,27.3956755859375,26.090204687499998C27.3956755859375,24.6487046875,26.2270755859375,23.480104687500003,24.7855755859375,23.480104687500003C24.6151755859375,23.480104687500003,24.4451755859375,23.4968046875,24.2780755859375,23.5300046875C24.1492755859375,23.538104687500002,24.0195755859375,23.5271046875,23.8932755859375,23.497004687500002C23.1921755859375,23.3300046875,22.7592755859375,22.6261046875,22.9262755859375,21.9250046875C22.9318755859375,21.901404687499998,22.9381755859375,21.878004687500002,22.9451755859375,21.8547046875C23.2948755859375,21.2993546875,23.4805755859375,20.6563946875,23.4805755859375,20.0000546875C23.4805755859375,18.0780546875,21.9224755859375,16.5199646875,20.0004755859375,16.5199646875C19.6566755859375,16.5199646875,19.3147755859375,16.5709046875,18.9858755859375,16.6711346875C18.9049755859375,16.6866446875,18.8226755859375,16.6944546875,18.7402755859375,16.6944546875C18.0194755859375,16.6944546875,17.4351755859375,16.1101746875,17.4351755859375,15.3894246875C17.4351755859375,15.2658346875,17.452775585937502,15.143394687499999,17.4869755859375,15.0256646875C17.5263755859375,14.9422246875,17.561375585937498,14.8567546875,17.591775585937498,14.7696046875C17.5952755859375,14.7632246875,17.5987755859375,14.7568546875,17.602275585937498,14.7505246875L17.5995755859375,14.7468846875ZM27.2740755859375,14.8575946875C27.3917755859375,14.5554946875,27.4521755859375,14.2341046875,27.4521755859375,13.9098746875C27.4521755859375,12.4683746875,26.2835755859375,11.2998046875,24.8420755859375,11.2998046875C23.4005755859375,11.2998046875,22.2320755859375,12.4683746875,22.2320755859375,13.9098746875C22.2320755859375,15.2527046875,23.2509755859375,16.3764046875,24.5873755859375,16.5074746875L24.6020755859375,16.5249546875C24.6140755859375,16.524784687500002,24.6261755859375,16.524704687499998,24.6381755859375,16.524704687499998C26.0796755859375,16.524704687499998,27.2482755859375,17.6932646875,27.2482755859375,19.1347646875C27.2482755859375,19.1707346875,27.2474755859375,19.2066846875,27.2460755859375,19.2425846875C27.1715755859375,19.488184687500002,27.1336755859375,19.7434146875,27.1336755859375,20.0000546875C27.1336755859375,21.3880046875,28.2198755859375,22.5332046875,29.6058755859375,22.6065046875L29.6091755859375,22.610304687499998C29.6211755859375,22.6102046875,29.6332755859375,22.610104687499998,29.6452755859375,22.610104687499998C31.0867755859375,22.610104687499998,32.2553755859375,23.7787046875,32.2553755859375,25.2202046875C32.2553755859375,25.3392046875,32.2472755859375,25.4580046875,32.2310755859375,25.5758046875C32.1969755859375,25.7451046875,32.179875585937495,25.9175046875,32.179875585937495,26.090204687499998C32.179875585937495,27.5317046875,33.348375585937504,28.7003046875,34.7898755859375,28.7003046875C36.2313755859375,28.7003046875,37.3999755859375,27.5317046875,37.3999755859375,26.090204687499998C37.3999755859375,24.7279046875,36.3521755859375,23.5947046875,34.9939755859375,23.488104687499998L34.9857755859375,23.4784046875C34.9539755859375,23.4795046875,34.9220755859375,23.480104687500003,34.8902755859375,23.480104687500003C33.4487755859375,23.480104687500003,32.2801755859375,22.3116046875,32.2801755859375,20.8700546875C32.2801755859375,20.7380446875,32.290175585937504,20.6062946875,32.3100755859375,20.4759346875C32.315175585937496,20.4487546875,32.3197755859375,20.4214946875,32.3238755859375,20.3941546875C32.327875585937505,20.3726746875,32.3321755859375,20.3512146875,32.3366755859375,20.329794687499998L32.3333755859375,20.3259146875C32.3469755859375,20.2178246875,32.3538755859375,20.1089946875,32.3538755859375,20.0000546875C32.3538755859375,18.6522446875,31.3275755859375,17.5260846875,29.9855755859375,17.4012146875L29.9786755859375,17.3929746875C29.9524755859375,17.3939346875,29.9262755859375,17.3944946875,29.9000755859375,17.3946646875C29.8479755859375,17.3915446875,29.7958755859375,17.3899846875,29.7437755859375,17.3899846875C29.7376755859375,17.3899846875,29.7316755859375,17.3900046875,29.7256755859375,17.3900446875C28.3814755859375,17.3100546875,27.3112755859375,16.2128346875,27.2740755859375,14.8575946875Z" fill-rule="evenodd" fill="url(#master_svg1_169_25913)" fill-opacity="1"/></g></g></svg>